<svg width="32" height="32" viewBox="0 0 32 32" fill="none" xmlns="http://www.w3.org/2000/svg">
<path d="M16.3429 11.8011C15.5803 11.8011 14.8348 12.0272 14.2007 12.4509C13.5666 12.8745 13.0724 13.4767 12.7806 14.1813C12.4888 14.8858 12.4124 15.6611 12.5612 16.409C12.71 17.157 13.0772 17.844 13.6164 18.3833C14.1557 18.9225 14.8427 19.2897 15.5906 19.4385C16.3386 19.5873 17.1138 19.5109 17.8184 19.2191C18.5229 18.9272 19.1251 18.433 19.5488 17.799C19.9725 17.1649 20.1986 16.4194 20.1986 15.6568C20.1986 15.1505 20.0989 14.6491 19.9051 14.1813C19.7113 13.7135 19.4273 13.2884 19.0693 12.9304C18.7113 12.5723 18.2862 12.2883 17.8184 12.0946C17.3506 11.9008 16.8492 11.8011 16.3429 11.8011ZM31.7815 7.99193C31.7733 6.79129 31.5522 5.60162 31.1285 4.47821C30.8164 3.65615 30.3336 2.90962 29.7118 2.28786C29.0901 1.6661 28.3435 1.18326 27.5215 0.8712C26.3981 0.447476 25.2084 0.226386 24.0077 0.218207C22.0021 0.109375 21.4113 0.109375 16.3429 0.109375C11.2744 0.109375 10.6836 0.109375 8.67797 0.218207C7.47733 0.226386 6.28766 0.447476 5.16424 0.8712C4.34219 1.18326 3.59565 1.6661 2.9739 2.28786C2.35214 2.90962 1.8693 3.65615 1.55723 4.47821C1.13351 5.60162 0.912422 6.79129 0.904242 7.99193C0.79541 9.99755 0.79541 10.5884 0.79541 15.6568C0.79541 20.7253 0.79541 21.3161 0.904242 23.3217C0.920977 24.5266 1.14177 25.7199 1.55723 26.851C1.86792 27.6693 2.35035 28.4115 2.97205 29.0276C3.59114 29.6531 4.33928 30.1359 5.16424 30.4424C6.28766 30.8662 7.47733 31.0873 8.67797 31.0954C10.6836 31.2043 11.2744 31.2043 16.3429 31.2043C21.4113 31.2043 22.0021 31.2043 24.0077 31.0954C25.2084 31.0873 26.3981 30.8662 27.5215 30.4424C28.3464 30.1359 29.0946 29.6531 29.7137 29.0276C30.3354 28.4115 30.8178 27.6693 31.1285 26.851C31.5518 25.7221 31.7728 24.5274 31.7815 23.3217C31.8903 21.3161 31.8903 20.7253 31.8903 15.6568C31.8903 10.5884 31.8903 9.99755 31.7815 7.99193ZM27.8324 20.4299C27.7825 21.3893 27.5778 22.3344 27.2261 23.2284C26.9242 23.9742 26.4755 24.6517 25.9066 25.2206C25.3377 25.7895 24.6602 26.2382 23.9145 26.54C23.012 26.8721 22.0616 27.0559 21.1004 27.0842C19.8721 27.0842 19.5456 27.0842 16.3429 27.0842C13.1401 27.0842 12.8136 27.0842 11.5853 27.0842C10.6241 27.0559 9.67376 26.8721 8.77125 26.54C8.00026 26.2535 7.304 25.7964 6.73453 25.2029C6.1712 24.6452 5.73615 23.9714 5.45964 23.2284C5.12624 22.3269 4.94752 21.3754 4.93103 20.4143C4.93103 19.1861 4.93103 18.8596 4.93103 15.6568C4.93103 12.454 4.93103 12.1275 4.93103 10.8993C4.94752 9.9382 5.12624 8.98679 5.45964 8.08521C5.74615 7.31422 6.20324 6.61797 6.79672 6.0485C7.35695 5.48821 8.03005 5.05361 8.77125 4.77361C9.67376 4.44152 10.6241 4.25776 11.5853 4.22945C12.8136 4.22945 13.1401 4.22945 16.3429 4.22945C19.5456 4.22945 19.8721 4.22945 21.1004 4.22945C22.0616 4.25776 23.012 4.44152 23.9145 4.77361C24.6855 5.06012 25.3817 5.5172 25.9512 6.11069C26.5145 6.66845 26.9496 7.34225 27.2261 8.08521C27.5582 8.98773 27.7419 9.93805 27.7702 10.8993C27.7702 12.1275 27.7702 12.454 27.7702 15.6568C27.7702 18.8596 27.8791 19.1861 27.8324 20.4143V20.4299ZM25.3448 8.86259C25.1597 8.36038 24.8679 7.90431 24.4894 7.52584C24.1109 7.14737 23.6548 6.85551 23.1526 6.6704C22.4631 6.43137 21.7368 6.31559 21.0071 6.32835C19.7944 6.32835 19.4523 6.32835 16.3429 6.32835C13.2334 6.32835 12.8913 6.32835 11.6786 6.32835C10.9452 6.33552 10.2188 6.47237 9.53307 6.73259C9.03856 6.90929 8.58731 7.18923 8.20934 7.5538C7.83137 7.91837 7.53532 8.35922 7.34088 8.84704C7.1151 9.53947 7.00479 10.2643 7.01439 10.9926C7.01439 12.2053 7.01439 12.5473 7.01439 15.6568C7.01439 18.7663 7.01439 19.1084 7.01439 20.3211C7.0298 21.0536 7.16639 21.7786 7.41862 22.4666C7.60373 22.9688 7.89559 23.4249 8.27406 23.8033C8.65253 24.1818 9.1086 24.4737 9.61081 24.6588C10.2742 24.9028 10.9722 25.0392 11.6786 25.063C12.8913 25.063 13.2334 25.063 16.3429 25.063C19.4523 25.063 19.7944 25.063 21.0071 25.063C21.7405 25.0559 22.4669 24.919 23.1526 24.6588C23.6548 24.4737 24.1109 24.1818 24.4894 23.8033C24.8679 23.4249 25.1597 22.9688 25.3448 22.4666C25.605 21.7808 25.7419 21.0545 25.7491 20.3211C25.7491 19.1084 25.7491 18.7663 25.7491 15.6568C25.7491 12.5473 25.7491 12.2053 25.7491 10.9926C25.7495 10.2584 25.6124 9.53069 25.3448 8.84704V8.86259ZM16.3429 21.5959C15.5637 21.5959 14.7921 21.4422 14.0724 21.1436C13.3527 20.8449 12.699 20.4072 12.1487 19.8555C11.5985 19.3038 11.1625 18.6489 10.8657 17.9284C10.5689 17.208 10.4172 16.436 10.4193 15.6568C10.4193 14.4815 10.768 13.3326 11.4213 12.3556C12.0746 11.3786 13.0031 10.6174 14.0892 10.1683C15.1753 9.71926 16.3703 9.60255 17.5228 9.83298C18.6753 10.0634 19.7335 10.6306 20.5635 11.4628C21.3935 12.2949 21.9579 13.3546 22.1853 14.5077C22.4127 15.6608 22.2929 16.8555 21.841 17.9404C21.3891 19.0254 20.6254 19.9519 19.6467 20.6026C18.668 21.2533 17.5182 21.599 16.3429 21.5959ZM22.5618 10.8838C22.2181 10.8474 21.9001 10.6851 21.6689 10.4282C21.4378 10.1712 21.3099 9.83787 21.3099 9.49226C21.3099 9.14665 21.4378 8.81327 21.6689 8.55635C21.9001 8.29943 22.2181 8.13714 22.5618 8.10076C22.9055 8.13714 23.2236 8.29943 23.4547 8.55635C23.6859 8.81327 23.8138 9.14665 23.8138 9.49226C23.8138 9.83787 23.6859 10.1712 23.4547 10.4282C23.2236 10.6851 22.9055 10.8474 22.5618 10.8838Z" fill="#002399"/>
</svg>
