<svg width="32" height="32" viewBox="0 0 32 32" fill="none" xmlns="http://www.w3.org/2000/svg">
<path d="M27.451 0.109375H3.64393C1.63144 0.109375 0 1.74082 0 3.75331V27.5603C0 29.5728 1.63144 31.2043 3.64393 31.2043H27.451C29.4634 31.2043 31.0949 29.5728 31.0949 27.5603V3.75331C31.0949 1.74082 29.4634 0.109375 27.451 0.109375Z" fill="#002399"/>
<path d="M21.6139 6.18262H24.8283L17.8058 14.209L26.0673 25.1311H19.5986L14.532 18.5069L8.73479 25.1311H5.51844L13.0298 16.546L5.10449 6.18262H11.7374L16.3171 12.2374L21.6139 6.18262ZM20.4857 23.2071H22.2669L10.7696 8.00556H8.8582L20.4857 23.2071Z" fill="white"/>
</svg>
