<svg width="25" height="24" viewBox="0 0 25 24" fill="none" xmlns="http://www.w3.org/2000/svg">
<path d="M12.1797 16.93L16.2497 21L18.0397 19.21C18.1439 19.1062 18.2239 18.9807 18.274 18.8424C18.3242 18.7042 18.3432 18.5565 18.3297 18.41L17.6797 11.3" stroke="#1D1E25" stroke-width="2" stroke-linecap="round" stroke-linejoin="round"/>
<path d="M9.86994 4.71L8.49994 6.13M9.86994 17.46C9.9629 17.5537 10.0735 17.6281 10.1954 17.6789C10.3172 17.7297 10.4479 17.7558 10.5799 17.7558C10.712 17.7558 10.8427 17.7297 10.9645 17.6789C11.0864 17.6281 11.197 17.5537 11.2899 17.46L19.1999 9.55C20.6713 8.07754 21.4984 6.08157 21.4999 4C21.4999 3.73478 21.3946 3.48043 21.207 3.29289C21.0195 3.10536 20.7652 3 20.4999 3C18.4184 3.00151 16.4224 3.82867 14.9499 5.3L7.03994 13.21C6.94621 13.303 6.87182 13.4136 6.82105 13.5354C6.77028 13.6573 6.74414 13.788 6.74414 13.92C6.74414 14.052 6.77028 14.1827 6.82105 14.3046C6.87182 14.4264 6.94621 14.537 7.03994 14.63L9.86994 17.46ZM18.3699 16L19.7899 14.59L18.3699 16Z" stroke="#1D1E25" stroke-width="2" stroke-linecap="round" stroke-linejoin="round"/>
<path d="M13.25 6.81997L6.09 6.16997C5.94353 6.1565 5.7959 6.17551 5.65761 6.22564C5.51933 6.27576 5.39381 6.35578 5.29 6.45997L3.5 8.24997L7.59 12.34" stroke="#1D1E25" stroke-width="2" stroke-linecap="round" stroke-linejoin="round"/>
</svg>
