<svg width="25" height="24" viewBox="0 0 25 24" fill="none" xmlns="http://www.w3.org/2000/svg">
<path d="M3.5 3V2C2.94772 2 2.5 2.44772 2.5 3H3.5ZM18.793 14.293L17.8818 13.8809C17.7104 14.2601 17.7916 14.7058 18.0859 15.0001L18.793 14.293ZM21.5 17L22.2071 17.7071C22.5976 17.3166 22.5976 16.6834 22.2071 16.2929L21.5 17ZM17.5 21L16.7929 21.7071C17.1834 22.0976 17.8166 22.0976 18.2071 21.7071L17.5 21ZM14.793 18.293L15.5001 17.5859C15.2058 17.2916 14.7601 17.2104 14.3809 17.3818L14.793 18.293ZM11.5 2H3.5V4H11.5V2ZM20.5 11C20.5 6.02944 16.4706 2 11.5 2V4C15.366 4 18.5 7.13401 18.5 11H20.5ZM19.7041 14.7051C20.2157 13.5738 20.5 12.3188 20.5 11H18.5C18.5 12.029 18.2786 13.0036 17.8818 13.8809L19.7041 14.7051ZM18.0859 15.0001L20.7929 17.7071L22.2071 16.2929L19.5001 13.5859L18.0859 15.0001ZM20.7929 16.2929L16.7929 20.2929L18.2071 21.7071L22.2071 17.7071L20.7929 16.2929ZM18.2071 20.2929L15.5001 17.5859L14.0859 19.0001L16.7929 21.7071L18.2071 20.2929ZM11.5 20C12.8188 20 14.0738 19.7157 15.2051 19.2041L14.3809 17.3818C13.5036 17.7786 12.529 18 11.5 18V20ZM2.5 11C2.5 15.9706 6.52944 20 11.5 20V18C7.63401 18 4.5 14.866 4.5 11H2.5ZM2.5 3V11H4.5V3H2.5Z" fill="#1D1E25"/>
<ellipse cx="11.5" cy="11" rx="2" ry="2" transform="rotate(-180 11.5 11)" fill="#1D1E25"/>
<path d="M3.5 3L11.5 11" stroke="#1D1E25" stroke-width="2" stroke-linecap="round" stroke-linejoin="round"/>
</svg>
