<svg width="19" height="21" viewBox="0 0 19 21" fill="none" xmlns="http://www.w3.org/2000/svg">
<path d="M17.2282 2.18436L5.0173 0.0281133C4.67499 -0.0312764 4.32309 0.0474783 4.03875 0.247114C3.75441 0.44675 3.56082 0.750979 3.50042 1.09311L0.711361 16.9369C0.681413 17.1066 0.685206 17.2807 0.722524 17.449C0.759841 17.6173 0.829952 17.7766 0.928851 17.9178C1.02775 18.059 1.1535 18.1794 1.29892 18.272C1.44434 18.3646 1.60657 18.4276 1.77636 18.4575L13.9873 20.6137C14.0634 20.6276 14.1406 20.6345 14.2179 20.6344C14.5252 20.6319 14.8218 20.5217 15.0562 20.323C15.2906 20.1242 15.4478 19.8496 15.5004 19.5469L18.2895 3.70311C18.3495 3.36106 18.2715 3.00917 18.0726 2.72451C17.8737 2.43984 17.5701 2.24562 17.2282 2.18436ZM17.1879 3.50999L14.3989 19.3537C14.3947 19.3781 14.3858 19.4014 14.3726 19.4224C14.3594 19.4433 14.3422 19.4614 14.322 19.4756C14.2813 19.504 14.2311 19.5151 14.1823 19.5066L1.96761 17.3512C1.94272 17.3473 1.91888 17.3384 1.89752 17.325C1.87615 17.3117 1.8577 17.2941 1.84326 17.2735C1.82882 17.2528 1.81869 17.2295 1.81348 17.2048C1.80827 17.1802 1.80808 17.1547 1.81292 17.13L4.60199 1.28624C4.60613 1.26186 4.61506 1.23854 4.62825 1.21762C4.64144 1.1967 4.65864 1.1786 4.67886 1.16436C4.72061 1.13525 4.77215 1.1238 4.8223 1.13249L17.0332 3.28874C17.0581 3.29268 17.082 3.30159 17.1033 3.31495C17.1247 3.32831 17.1432 3.34584 17.1576 3.3665C17.172 3.38715 17.1822 3.4105 17.1874 3.43515C17.1926 3.45981 17.1928 3.48526 17.1879 3.50999ZM14.9482 5.39905C14.9261 5.52987 14.8585 5.64866 14.7573 5.73443C14.6561 5.82021 14.5278 5.86745 14.3951 5.8678C14.3621 5.86779 14.3292 5.86496 14.2967 5.85936L6.51542 4.48499C6.44076 4.4743 6.36901 4.44869 6.30444 4.40971C6.23987 4.37072 6.1838 4.31915 6.13956 4.25806C6.09533 4.19697 6.06383 4.1276 6.04695 4.05409C6.03006 3.98058 6.02814 3.90442 6.04128 3.83015C6.05442 3.75588 6.08237 3.68501 6.12346 3.62175C6.16455 3.5585 6.21794 3.50416 6.28045 3.46196C6.34296 3.41976 6.41333 3.39056 6.48736 3.3761C6.56138 3.36164 6.63756 3.36222 6.71136 3.3778L14.4926 4.75124C14.6386 4.77733 14.7684 4.86004 14.8538 4.98137C14.9391 5.10269 14.973 5.25281 14.9482 5.39905ZM14.4279 8.35124C14.4058 8.48205 14.3382 8.60084 14.237 8.68662C14.1357 8.77239 14.0075 8.81963 13.8748 8.81999C13.8433 8.81974 13.8119 8.8166 13.781 8.81061L5.9998 7.43718C5.85285 7.41119 5.72225 7.3279 5.63671 7.20562C5.55118 7.08334 5.51772 6.93209 5.5437 6.78514C5.56969 6.6382 5.65298 6.50759 5.77526 6.42206C5.89754 6.33652 6.04879 6.30307 6.19574 6.32905L13.977 7.70343C14.1221 7.7306 14.2508 7.81376 14.3352 7.93496C14.4195 8.05616 14.4528 8.20568 14.4279 8.35124ZM10.0217 10.6191C9.99855 10.7492 9.93035 10.867 9.82903 10.9518C9.72772 11.0367 9.59977 11.0832 9.46761 11.0831C9.43462 11.083 9.4017 11.0802 9.36917 11.0747L5.47949 10.3875C5.40482 10.3768 5.33307 10.3512 5.2685 10.3122C5.20393 10.2732 5.14786 10.2217 5.10363 10.1606C5.05939 10.0995 5.0279 10.0301 5.01101 9.95659C4.99413 9.88308 4.9922 9.80692 5.00534 9.73265C5.01849 9.65838 5.04643 9.58751 5.08752 9.52425C5.12861 9.461 5.182 9.40666 5.24451 9.36446C5.30703 9.32226 5.37739 9.29306 5.45142 9.2786C5.52545 9.26414 5.60162 9.26472 5.67542 9.2803L9.56511 9.96655C9.638 9.97965 9.70758 10.007 9.76987 10.0471C9.83216 10.0871 9.88593 10.1391 9.92809 10.2C9.97024 10.2609 9.99996 10.3295 10.0155 10.4019C10.0311 10.4743 10.0322 10.549 10.0189 10.6219L10.0217 10.6191Z" fill="black"/>
</svg>
