<svg width="222" height="426" viewBox="0 0 222 426" fill="none" xmlns="http://www.w3.org/2000/svg">
<path d="M-167.167 385.456C-11.4273 405.883 132.532 287.59 154.316 121.163C176.101 -45.263 67.4466 -196.688 -88.2928 -217.114C-244.032 -237.54 -387.991 -119.247 -409.776 47.1791C-431.56 213.605 -322.906 365.03 -167.167 385.456Z" stroke="#D1D5E0"/>
<path d="M-179.017 311.265C-23.2779 331.691 120.681 213.398 142.466 46.972C164.25 -119.454 55.596 -270.879 -100.143 -291.305C-255.883 -311.731 -399.842 -193.439 -421.626 -27.0123C-443.411 139.414 -334.757 290.839 -179.017 311.265Z" stroke="#D1D5E0"/>
<path d="M146.809 160.573L153.639 146.226L168.878 145.43L155.223 138.021L154.274 121.894L147.443 136.241L132.205 137.037L145.86 144.446L146.809 160.573Z" fill="#830DFD"/>
</svg>
