<svg width="252" height="486" viewBox="0 0 252 486" fill="none" xmlns="http://www.w3.org/2000/svg">
<path d="M426.371 58.8612C272.13 29.1662 121.361 138.646 89.6714 303.474C57.9819 468.301 157.394 625.947 311.635 655.642C465.876 685.337 616.645 575.857 648.335 411.03C680.024 246.202 580.612 88.5563 426.371 58.8612Z" stroke="#D1D5E0"/>
<path d="M433.77 133.628C279.529 103.933 128.759 213.413 97.0698 378.241C65.3803 543.068 164.793 700.714 319.033 730.409C473.274 760.104 624.044 650.624 655.733 485.797C687.423 320.969 588.01 163.323 433.77 133.628Z" stroke="#D1D5E0"/>
<path d="M99.5215 264.583L91.8461 278.496L76.5874 278.38L89.7751 286.592L89.7589 302.747L97.4343 288.834L112.693 288.949L99.5052 280.738L99.5215 264.583Z" fill="#830DFD"/>
</svg>
