<svg width="61" height="62" viewBox="0 0 61 62" fill="none" xmlns="http://www.w3.org/2000/svg">
<path d="M29.7302 11.0658C41.0473 11.0658 50.1973 20.2158 50.1973 31.5329C50.1973 42.85 41.0473 52 29.7302 52C18.4131 52 9.26308 42.85 9.26308 31.5329C9.26308 20.2158 18.4131 11.0658 29.7302 11.0658ZM29.7302 49.5921C39.7229 49.5921 47.7894 41.5257 47.7894 31.5329C47.7894 21.5402 39.7229 13.4737 29.7302 13.4737C19.7374 13.4737 11.671 21.5402 11.671 31.5329C11.671 41.5257 19.7374 49.5921 29.7302 49.5921Z" fill="#262626"/>
<path d="M40.1557 38.5721H21.4358C21.2463 38.5715 21.0605 38.5192 20.8985 38.4209C20.7364 38.3226 20.6043 38.1819 20.5162 38.0141C20.4282 37.8462 20.3876 37.6576 20.3988 37.4684C20.41 37.2792 20.4726 37.0966 20.5799 36.9403L29.9398 23.4204C30.3278 22.8599 31.2617 22.8599 31.6506 23.4204L41.0106 36.9403C41.1189 37.0963 41.1824 37.2789 41.1943 37.4684C41.2061 37.658 41.1658 37.8471 41.0776 38.0153C40.9895 38.1835 40.857 38.3243 40.6945 38.4225C40.5319 38.5207 40.3456 38.5724 40.1557 38.5721Z" fill="#262626"/>
</svg>
